<?xml version="1.0" encoding="UTF-8"?>
<svg xmlns="http://www.w3.org/2000/svg" width="1200" height="630" viewBox="0 0 1200 630" role="img" aria-label="Fake reviews — inflated stars and manipulated trust score">
  <defs>
    <linearGradient id="howscammersfaketrustpilotreviews-bg" x1="0%" y1="0%" x2="100%" y2="100%">
      <stop offset="0%" stop-color="#eff6ff"/>
      <stop offset="45%" stop-color="#ffffff"/>
      <stop offset="100%" stop-color="#f0fdf4"/>
    </linearGradient>
    <linearGradient id="howscammersfaketrustpilotreviews-card" x1="0%" y1="0%" x2="0%" y2="100%">
      <stop offset="0%" stop-color="#ffffff"/>
      <stop offset="100%" stop-color="#f8fafc"/>
    </linearGradient>
    <linearGradient id="howscammersfaketrustpilotreviews-accent" x1="0%" y1="0%" x2="100%" y2="0%">
      <stop offset="0%" stop-color="#3b82f6"/>
      <stop offset="100%" stop-color="#8b5cf6"/>
    </linearGradient>
    <filter id="howscammersfaketrustpilotreviews-shadow" x="-20%" y="-20%" width="140%" height="140%">
      <feDropShadow dx="0" dy="8" stdDeviation="12" flood-color="#1e3a8a" flood-opacity="0.08"/>
    </filter>
    <filter id="howscammersfaketrustpilotreviews-shadow-sm" x="-10%" y="-10%" width="120%" height="120%">
      <feDropShadow dx="0" dy="4" stdDeviation="6" flood-color="#334155" flood-opacity="0.06"/>
    </filter>
  </defs>
  <rect width="1200" height="630" fill="url(#howscammersfaketrustpilotreviews-bg)"/>
  <ellipse cx="920" cy="120" rx="200" ry="160" fill="#8b5cf6" fill-opacity="0.06"/>
  <ellipse cx="180" cy="520" rx="240" ry="180" fill="#3b82f6" fill-opacity="0.07"/>
  <ellipse cx="600" cy="80" rx="120" ry="80" fill="#10b981" fill-opacity="0.08"/>
  
  <g filter="url(#howscammersfaketrustpilotreviews-shadow)">
    <!-- Trust score card -->
    <rect x="300" y="100" width="340" height="400" rx="24" fill="url(#howscammersfaketrustpilotreviews-card)" stroke="#c7d2fe" stroke-width="2"/>
    <text x="330" y="150" font-family="system-ui,sans-serif" font-size="14" font-weight="600" fill="#64748b">Trust score</text>
    <text x="330" y="220" font-family="system-ui,sans-serif" font-size="64" font-weight="800" fill="url(#howscammersfaketrustpilotreviews-accent)">4.9</text>
    <text x="330" y="252" font-family="system-ui,sans-serif" font-size="13" fill="#94a3b8">Based on 2,847 reviews</text>

    <!-- Stars row -->
    <g transform="translate(330,270)">
      <polygon points="0,0 14,28 36,28 20,44 26,68 12,54 -2,68 8,44 -8,28 6,28" fill="#f59e0b" stroke="#f59e0b" stroke-width="1"/><polygon points="44,0 58,28 80,28 64,44 70,68 56,54 42,68 52,44 36,28 50,28" fill="#f59e0b" stroke="#f59e0b" stroke-width="1"/><polygon points="88,0 102,28 124,28 108,44 114,68 100,54 86,68 96,44 80,28 94,28" fill="#f59e0b" stroke="#f59e0b" stroke-width="1"/><polygon points="132,0 146,28 168,28 152,44 158,68 144,54 130,68 140,44 124,28 138,28" fill="#f59e0b" stroke="#f59e0b" stroke-width="1"/><polygon points="176,0 190,28 212,28 196,44 202,68 188,54 174,68 184,44 168,28 182,28" fill="#f59e0b" stroke="#f59e0b" stroke-width="1"/>
    </g>

    <!-- Fake review snippets -->
    <rect x="330" y="350" width="280" height="36" rx="8" fill="#f1f5f9"/>
    <rect x="330" y="398" width="220" height="36" rx="8" fill="#f1f5f9"/>
    <rect x="330" y="446" width="250" height="36" rx="8" fill="#f1f5f9"/>
  </g>

  <!-- Warning marker -->
  <g transform="translate(700,120)" filter="url(#howscammersfaketrustpilotreviews-shadow-sm)">
    <rect width="280" height="200" rx="20" fill="#fffbeb" stroke="#f59e0b" stroke-width="2"/>
    <circle cx="48" cy="48" r="28" fill="#f59e0b" fill-opacity="0.2"/>
    <text x="48" y="56" text-anchor="middle" font-size="28">!</text>
    <text x="90" y="52" font-family="system-ui,sans-serif" font-size="16" font-weight="700" fill="#0f172a">Review pattern alert</text>
    <text x="90" y="78" font-family="system-ui,sans-serif" font-size="13" fill="#475569">Burst of 5★ in 48 hours</text>
    <text x="90" y="102" font-family="system-ui,sans-serif" font-size="13" fill="#475569">Generic wording detected</text>
    <rect x="24" y="130" width="232" height="48" rx="10" fill="#fff" stroke="#e2e8f0" stroke-width="1"/>
    <text x="40" y="160" font-family="system-ui,sans-serif" font-size="12" fill="#ef4444">⚠ Likely manipulated</text>
  </g>

  <!-- Secondary stars (dimmed) -->
  <g transform="translate(720,360)" opacity="0.5">
    <polygon points="0,0 11,22 29,22 16,34 21,54 10,42 -1,54 6,34 -6,22 5,22" fill="#94a3b8"/><polygon points="36,0 47,22 65,22 52,34 57,54 46,42 35,54 42,34 30,22 41,22" fill="#94a3b8"/><polygon points="72,0 83,22 101,22 88,34 93,54 82,42 71,54 78,34 66,22 77,22" fill="#94a3b8"/>
  </g>

  <g transform="translate(320,520)">
    <rect width="118" height="28" rx="14" fill="#3b82f6" fill-opacity="0.1" stroke="#c7d2fe" stroke-width="1"/>
    <circle cx="16" cy="14" r="6" fill="url(#howscammersfaketrustpilotreviews-accent)"/>
    <text x="28" y="18" font-family="system-ui,-apple-system,sans-serif" font-size="11" font-weight="700" fill="#3b82f6" letter-spacing="0.04em">FRAUDLY</text>
  </g>
  <text x="600" y="575" text-anchor="middle" font-family="system-ui,sans-serif" font-size="13" fill="#94a3b8">Scam Intelligence</text>
</svg>