<?xml version="1.0" encoding="UTF-8"?>
<svg xmlns="http://www.w3.org/2000/svg" width="1200" height="630" viewBox="0 0 1200 630" role="img" aria-label="Website safety — secure checkout and payment risk check">
  <defs>
    <linearGradient id="howtocheckifawebsiteissafe-bg" x1="0%" y1="0%" x2="100%" y2="100%">
      <stop offset="0%" stop-color="#eff6ff"/>
      <stop offset="45%" stop-color="#ffffff"/>
      <stop offset="100%" stop-color="#f0fdf4"/>
    </linearGradient>
    <linearGradient id="howtocheckifawebsiteissafe-card" x1="0%" y1="0%" x2="0%" y2="100%">
      <stop offset="0%" stop-color="#ffffff"/>
      <stop offset="100%" stop-color="#f8fafc"/>
    </linearGradient>
    <linearGradient id="howtocheckifawebsiteissafe-accent" x1="0%" y1="0%" x2="100%" y2="0%">
      <stop offset="0%" stop-color="#2563eb"/>
      <stop offset="100%" stop-color="#7c3aed"/>
    </linearGradient>
    <filter id="howtocheckifawebsiteissafe-shadow" x="-20%" y="-20%" width="140%" height="140%">
      <feDropShadow dx="0" dy="10" stdDeviation="14" flood-color="#1e3a8a" flood-opacity="0.11"/>
    </filter>
    <filter id="howtocheckifawebsiteissafe-shadow-sm" x="-10%" y="-10%" width="120%" height="120%">
      <feDropShadow dx="0" dy="5" stdDeviation="7" flood-color="#334155" flood-opacity="0.09"/>
    </filter>
  </defs>
  <rect width="1200" height="630" fill="url(#howtocheckifawebsiteissafe-bg)"/>
  <ellipse cx="920" cy="120" rx="200" ry="160" fill="#7c3aed" fill-opacity="0.1"/>
  <ellipse cx="180" cy="520" rx="240" ry="180" fill="#2563eb" fill-opacity="0.11"/>
  <ellipse cx="600" cy="80" rx="120" ry="80" fill="#059669" fill-opacity="0.1"/>
  
  <g filter="url(#howtocheckifawebsiteissafe-shadow)">
    <!-- Payment / checkout card -->
    <rect x="260" y="120" width="380" height="340" rx="24" fill="url(#howtocheckifawebsiteissafe-card)" stroke="#93c5fd" stroke-width="2"/>
    <text x="300" y="170" font-family="system-ui,sans-serif" font-size="14" font-weight="600" fill="#475569">Checkout</text>
    <rect x="300" y="190" width="300" height="56" rx="12" fill="#f8fafc" stroke="#cbd5e1" stroke-width="1.5"/>
    <rect x="320" y="210" width="120" height="16" rx="4" fill="#e2e8f0"/>
    <text x="300" y="280" font-family="system-ui,sans-serif" font-size="13" fill="#475569">Order total</text>
    <text x="300" y="310" font-family="system-ui,sans-serif" font-size="28" font-weight="700" fill="#0f172a">€ 149.00</text>

    <!-- Lock + secure -->
    <g transform="translate(300,330)">
      <rect width="140" height="44" rx="10" fill="#ecfdf5" stroke="#059669" stroke-width="1.5"/>
      <rect x="16" y="12" width="20" height="24" rx="4" fill="none" stroke="#059669" stroke-width="2"/>
      <path d="M20 12 V8 a12 12 0 0 1 24 0 v4" fill="none" stroke="#059669" stroke-width="2"/>
      <text x="48" y="28" font-family="system-ui,sans-serif" font-size="13" font-weight="600" fill="#059669">HTTPS</text>
    </g>

    <!-- Risk indicator (amber) -->
    <g transform="translate(460,330)">
      <rect width="140" height="44" rx="10" fill="#fffbeb" stroke="#d97706" stroke-width="1.5"/>
      <circle cx="24" cy="22" r="10" fill="#d97706" fill-opacity="0.3"/>
      <text x="24" y="27" text-anchor="middle" font-size="14" font-weight="700" fill="#d97706">!</text>
      <text x="44" y="28" font-family="system-ui,sans-serif" font-size="13" font-weight="600" fill="#d97706">Review risk</text>
    </g>

    <rect x="300" y="395" width="300" height="48" rx="12" fill="url(#howtocheckifawebsiteissafe-accent)" fill-opacity="0.15" stroke="url(#howtocheckifawebsiteissafe-accent)" stroke-width="1.5"/>
    <text x="450" y="426" text-anchor="middle" font-family="system-ui,sans-serif" font-size="14" font-weight="700" fill="#2563eb">Run safety check</text>
  </g>

  <!-- Browser safety panel -->
  <g transform="translate(700,100)" filter="url(#howtocheckifawebsiteissafe-shadow-sm)">
    <rect width="320" height="380" rx="24" fill="#fff" stroke="#93c5fd" stroke-width="2"/>
    <rect x="0" y="0" width="320" height="48" rx="24" fill="#f1f5f9"/>
    <rect x="0" y="24" width="320" height="24" fill="#f1f5f9"/>
    <circle cx="36" cy="24" r="7" fill="#fca5a5"/><circle cx="58" cy="24" r="7" fill="#fcd34d"/><circle cx="80" cy="24" r="7" fill="#86efac"/>
    <rect x="100" y="14" width="180" height="22" rx="6" fill="#fff" stroke="#cbd5e1" stroke-width="1"/>
    <text x="115" y="30" font-family="system-ui,sans-serif" font-size="11" fill="#475569">trusted-store.com</text>

    <g transform="translate(80,100)">
      <circle cx="80" cy="80" r="70" fill="#eff6ff" stroke="url(#howtocheckifawebsiteissafe-accent)" stroke-width="3"/>
      <path d="M50 82 L72 104 L118 58" fill="none" stroke="#059669" stroke-width="6" stroke-linecap="round" stroke-linejoin="round"/>
    </g>
    <text x="160" y="280" text-anchor="middle" font-family="system-ui,sans-serif" font-size="15" font-weight="700" fill="#059669">Safer to proceed</text>
    <text x="160" y="305" text-anchor="middle" font-family="system-ui,sans-serif" font-size="12" fill="#64748b">Domain · SSL · reputation</text>
  </g>

  <g transform="translate(280,520)">
    <rect width="118" height="28" rx="14" fill="#2563eb" fill-opacity="0.1" stroke="#93c5fd" stroke-width="1"/>
    <circle cx="16" cy="14" r="6" fill="url(#howtocheckifawebsiteissafe-accent)"/>
    <text x="28" y="18" font-family="system-ui,-apple-system,sans-serif" font-size="11" font-weight="700" fill="#2563eb" letter-spacing="0.04em">FRAUDLY</text>
  </g>
  <text x="600" y="575" text-anchor="middle" font-family="system-ui,sans-serif" font-size="13" fill="#64748b">Fraud Prevention</text>
</svg>