<?xml version="1.0" encoding="UTF-8"?>
<svg xmlns="http://www.w3.org/2000/svg" width="1200" height="630" viewBox="0 0 1200 630" role="img" aria-label="Fake webshop detection — browser, discount trap, and warning">
  <defs>
    <linearGradient id="howtodetectfakewebshops-bg" x1="0%" y1="0%" x2="100%" y2="100%">
      <stop offset="0%" stop-color="#eff6ff"/>
      <stop offset="45%" stop-color="#ffffff"/>
      <stop offset="100%" stop-color="#f0fdf4"/>
    </linearGradient>
    <linearGradient id="howtodetectfakewebshops-card" x1="0%" y1="0%" x2="0%" y2="100%">
      <stop offset="0%" stop-color="#ffffff"/>
      <stop offset="100%" stop-color="#f8fafc"/>
    </linearGradient>
    <linearGradient id="howtodetectfakewebshops-accent" x1="0%" y1="0%" x2="100%" y2="0%">
      <stop offset="0%" stop-color="#3b82f6"/>
      <stop offset="100%" stop-color="#8b5cf6"/>
    </linearGradient>
    <filter id="howtodetectfakewebshops-shadow" x="-20%" y="-20%" width="140%" height="140%">
      <feDropShadow dx="0" dy="8" stdDeviation="12" flood-color="#1e3a8a" flood-opacity="0.08"/>
    </filter>
    <filter id="howtodetectfakewebshops-shadow-sm" x="-10%" y="-10%" width="120%" height="120%">
      <feDropShadow dx="0" dy="4" stdDeviation="6" flood-color="#334155" flood-opacity="0.06"/>
    </filter>
  </defs>
  <rect width="1200" height="630" fill="url(#howtodetectfakewebshops-bg)"/>
  <ellipse cx="920" cy="120" rx="200" ry="160" fill="#8b5cf6" fill-opacity="0.06"/>
  <ellipse cx="180" cy="520" rx="240" ry="180" fill="#3b82f6" fill-opacity="0.07"/>
  <ellipse cx="600" cy="80" rx="120" ry="80" fill="#10b981" fill-opacity="0.08"/>
  
  <g filter="url(#howtodetectfakewebshops-shadow)">
    <!-- Browser window -->
    <rect x="280" y="95" width="640" height="420" rx="24" fill="url(#howtodetectfakewebshops-card)" stroke="#c7d2fe" stroke-width="2"/>
    <rect x="280" y="95" width="640" height="52" rx="24" fill="#f1f5f9"/>
    <rect x="280" y="123" width="640" height="24" fill="#f1f5f9"/>
    <circle cx="318" cy="121" r="8" fill="#fca5a5"/><circle cx="346" cy="121" r="8" fill="#fcd34d"/><circle cx="374" cy="121" r="8" fill="#86efac"/>
    <rect x="420" y="108" width="360" height="26" rx="8" fill="#fff" stroke="#e2e8f0" stroke-width="1.5"/>
    <text x="440" y="126" font-family="system-ui,sans-serif" font-size="13" fill="#64748b">suspicious-deals-shop.net</text>

    <!-- Product card in browser -->
    <rect x="320" y="175" width="260" height="300" rx="16" fill="#fff" stroke="#e2e8f0" stroke-width="1.5"/>
    <rect x="340" y="195" width="220" height="140" rx="12" fill="url(#howtodetectfakewebshops-accent)" fill-opacity="0.12"/>
    <rect x="340" y="355" width="140" height="14" rx="4" fill="#e2e8f0"/>
    <rect x="340" y="380" width="90" height="12" rx="4" fill="#e2e8f0"/>
    <text x="490" y="420" font-family="system-ui,sans-serif" font-size="22" font-weight="700" fill="#ef4444">-92%</text>

    <!-- Fake discount tag -->
    <g transform="translate(520,165) rotate(-8)">
      <rect width="130" height="44" rx="10" fill="#f59e0b" filter="url(#howtodetectfakewebshops-shadow-sm)"/>
      <text x="16" y="28" font-family="system-ui,sans-serif" font-size="15" font-weight="800" fill="#fff">FLASH SALE</text>
    </g>

    <!-- Warning badge -->
    <g transform="translate(720,200)">
      <circle cx="52" cy="52" r="52" fill="#fef2f2" stroke="#ef4444" stroke-width="2.5"/>
      <path d="M52 28 L68 72 H36 Z" fill="none" stroke="#ef4444" stroke-width="3" stroke-linejoin="round"/>
      <line x1="52" y1="44" x2="52" y2="58" stroke="#ef4444" stroke-width="3" stroke-linecap="round"/>
      <circle cx="52" cy="66" r="2.5" fill="#ef4444"/>
      <text x="52" y="128" text-anchor="middle" font-family="system-ui,sans-serif" font-size="14" font-weight="700" fill="#ef4444">High risk</text>
    </g>

    <!-- Shopping bag icon -->
    <g transform="translate(620,280)" fill="none" stroke="url(#howtodetectfakewebshops-accent)" stroke-width="3">
      <path d="M20 35h80l-10 55H30L20 35z"/><path d="M38 35V22a22 22 0 0 1 44 0v13"/>
    </g>
  </g>
  <g transform="translate(320,520)">
    <rect width="118" height="28" rx="14" fill="#3b82f6" fill-opacity="0.1" stroke="#c7d2fe" stroke-width="1"/>
    <circle cx="16" cy="14" r="6" fill="url(#howtodetectfakewebshops-accent)"/>
    <text x="28" y="18" font-family="system-ui,-apple-system,sans-serif" font-size="11" font-weight="700" fill="#3b82f6" letter-spacing="0.04em">FRAUDLY</text>
  </g>
  <text x="600" y="575" text-anchor="middle" font-family="system-ui,sans-serif" font-size="13" fill="#94a3b8">Consumer Safety Guide</text>
</svg>