<?xml version="1.0" encoding="UTF-8"?>
<svg xmlns="http://www.w3.org/2000/svg" width="1200" height="630" viewBox="0 0 1200 630" role="img" aria-label="Fake review manipulation">
  <defs>
    <linearGradient id="bg" x1="0" y1="0" x2="1" y2="1">
      <stop offset="0%" stop-color="#0f172a"/>
      <stop offset="50%" stop-color="#1e3a8a"/>
      <stop offset="100%" stop-color="#4c1d95"/>
    </linearGradient>
    <radialGradient id="glow" cx="75%" cy="25%" r="45%">
      <stop offset="0%" stop-color="#a78bfa" stop-opacity="0.45"/>
      <stop offset="100%" stop-color="#a78bfa" stop-opacity="0"/>
    </radialGradient>
  </defs>
  <rect width="1200" height="630" fill="url(#bg)"/>
  <rect width="1200" height="630" fill="url(#glow)"/>
  <g transform="translate(500 180)" fill="#a78bfa" opacity="0.9"><polygon points="60,200 80,140 130,140 90,105 105,45 60,80 15,45 30,105 -10,140 40,140"/><polygon points="220,200 235,155 275,155 245,130 255,90 220,115 185,90 195,130 165,155 205,155" opacity="0.55"/></g>
  <g opacity="0.15" stroke="#fff" stroke-width="1">
    <path d="M0 520 H1200"/><path d="M100 0 V630"/><path d="M300 0 V630"/><path d="M600 0 V630"/><path d="M900 0 V630"/>
  </g>
</svg>